<svg xmlns="http://www.w3.org/2000/svg" xmlns:xlink="http://www.w3.org/1999/xlink" width="2000" height="2000" viewBox="0 0 2000 2000"><defs><style>.cls-1{fill:none}.cls-2,.cls-3{fill:#2575db}.cls-13,.cls-14,.cls-15,.cls-2,.cls-30,.cls-32{fill-rule:evenodd}.cls-4{fill:url(#linear-gradient)}.cls-5{fill:url(#linear-gradient-2)}.cls-6{fill:url(#linear-gradient-3)}.cls-7{fill:#16416e}.cls-8{fill:url(#linear-gradient-4)}.cls-9{fill:url(#linear-gradient-5)}.cls-10{fill:url(#linear-gradient-6)}.cls-11{fill:#e84855}.cls-12{fill:url(#linear-gradient-7)}.cls-13{fill:url(#linear-gradient-8)}.cls-14{fill:url(#linear-gradient-9)}.cls-15{fill:url(#linear-gradient-10)}.cls-16{fill:url(#linear-gradient-11)}.cls-17{fill:url(#linear-gradient-12)}.cls-18{fill:#1f65a6}.cls-19{fill:url(#linear-gradient-13)}.cls-20{fill:url(#linear-gradient-14)}.cls-21{fill:url(#linear-gradient-15)}.cls-22{fill:url(#linear-gradient-16)}.cls-23{fill:url(#linear-gradient-17)}.cls-24{fill:url(#linear-gradient-18)}.cls-25{fill:#2161a3}.cls-26{fill:#fff}.cls-27{fill:url(#linear-gradient-19)}.cls-28{fill:url(#linear-gradient-20)}.cls-29{fill:url(#linear-gradient-21)}.cls-30{fill:url(#linear-gradient-22)}.cls-31{opacity:.94}.cls-32{fill:url(#arrow_up)}.cls-33{fill:#a3e7fc}.cls-34{fill:url(#linear-gradient-23)}.cls-35{fill:url(#linear-gradient-24)}.cls-36{fill:url(#linear-gradient-25)}.cls-37{fill:url(#linear-gradient-26)}.cls-38{fill:url(#linear-gradient-27)}.cls-39{fill:url(#linear-gradient-28)}.cls-40{fill:url(#linear-gradient-29)}.cls-41{fill:url(#linear-gradient-30)}.cls-42{fill:url(#linear-gradient-31)}.cls-43{fill:url(#linear-gradient-32)}.cls-44{fill:url(#linear-gradient-33)}.cls-45{fill:url(#linear-gradient-34)}.cls-46{fill:url(#linear-gradient-35)}.cls-47{fill:url(#linear-gradient-36)}.cls-48{fill:url(#linear-gradient-37)}.cls-49{fill:#9c7761}.cls-50{fill:#03d9e0}.cls-51{fill:#113254}.cls-52{fill:#942d36}.cls-53{fill:#4a3222}.cls-54{fill:#785b4b}.cls-55{fill:url(#linear-gradient-38)}.cls-56{fill:url(#linear-gradient-39)}.cls-57{fill:url(#linear-gradient-40)}.cls-58{fill:url(#linear-gradient-41)}.cls-59{fill:url(#linear-gradient-42)}.cls-60{fill:#fcb32c}.cls-61{fill:#7d5409}.cls-62{fill:#bbdef0}.cls-63{fill:url(#linear-gradient-43)}</style><linearGradient id="linear-gradient" x1="626.78" y1="118.03" x2="1404.42" y2="1950.75" gradientUnits="userSpaceOnUse"><stop offset=".03" stop-color="#2575db"/><stop offset=".85" stop-color="#582994"/></linearGradient><linearGradient id="linear-gradient-2" x1="999.65" y1="1029.82" x2="999.65" y2="-903.57" gradientUnits="userSpaceOnUse"><stop offset="0" stop-color="#2575db"/><stop offset=".8" stop-color="#582994"/></linearGradient><linearGradient id="linear-gradient-3" x1="632.84" y1="696.3" x2="1205.77" y2="2046.58" gradientUnits="userSpaceOnUse"><stop offset="0" stop-color="#2575db"/><stop offset=".81" stop-color="#582994"/></linearGradient><linearGradient id="linear-gradient-4" x1="1276.68" y1="1079.53" x2="1276.68" y2="1131.33" gradientUnits="userSpaceOnUse"><stop offset=".03" stop-color="#2575db"/><stop offset=".96" stop-color="#582994"/></linearGradient><linearGradient id="linear-gradient-5" x1="1264.9" y1="1082.96" x2="1283.83" y2="1082.96" xlink:href="#linear-gradient-4"/><linearGradient id="linear-gradient-6" x1="1264.9" y1="1088.85" x2="1283.83" y2="1088.85" xlink:href="#linear-gradient-4"/><linearGradient id="linear-gradient-7" x1="1002.54" y1="789.68" x2="1002.54" y2="982.28" gradientUnits="userSpaceOnUse"><stop offset=".03" stop-color="#419ae0"/><stop offset="1" stop-color="#2674db"/></linearGradient><linearGradient id="linear-gradient-8" x1="1002.54" y1="915.5" x2="1002.54" y2="993.31" gradientUnits="userSpaceOnUse"><stop offset=".25" stop-color="#59abeb"/><stop offset="1" stop-color="#2674db"/></linearGradient><linearGradient id="linear-gradient-9" x1="874.96" y1="866.02" x2="874.96" y2="936.01" gradientUnits="userSpaceOnUse"><stop offset=".01" stop-color="#55a6e6"/><stop offset="1" stop-color="#2674db"/></linearGradient><linearGradient id="linear-gradient-10" x1="1082.89" y1="831.92" x2="1082.89" y2="885.63" xlink:href="#linear-gradient-9"/><linearGradient id="linear-gradient-11" x1="1002.23" y1="871.11" x2="1002.23" y2="1457.86" xlink:href="#linear-gradient-4"/><linearGradient id="linear-gradient-12" x1="807.3" y1="1002.22" x2="807.3" y2="1112.63" xlink:href="#linear-gradient-7"/><linearGradient id="linear-gradient-13" x1="806.44" y1="1125.3" x2="806.44" y2="1100.66" xlink:href="#linear-gradient-7"/><linearGradient id="linear-gradient-14" x1="739.24" y1="1013.26" x2="739.24" y2="961.94" gradientUnits="userSpaceOnUse"><stop offset=".03" stop-color="#8ddef7"/><stop offset="1" stop-color="#cae3f0"/></linearGradient><linearGradient id="linear-gradient-15" x1="755.63" y1="1013.26" x2="755.63" y2="961.94" xlink:href="#linear-gradient-14"/><linearGradient id="linear-gradient-16" x1="771.95" y1="1013.26" x2="771.95" y2="961.94" xlink:href="#linear-gradient-14"/><linearGradient id="linear-gradient-17" x1="1166.39" y1="1300.28" x2="1166.79" y2="1339.56" gradientTransform="matrix(1 -.09 .06 .67 -456.11 226.3)" gradientUnits="userSpaceOnUse"><stop offset=".46" stop-color="#2674db"/><stop offset="1" stop-color="#419ae0"/></linearGradient><linearGradient id="linear-gradient-18" x1="790.34" y1="989.91" x2="791.96" y2="1013.06" xlink:href="#linear-gradient-7"/><linearGradient id="linear-gradient-19" x1="795.97" y1="999.77" x2="799.94" y2="999.77" gradientUnits="userSpaceOnUse"><stop offset=".03" stop-color="#a3e7fc"/><stop offset="1" stop-color="#cae3f0"/></linearGradient><linearGradient id="linear-gradient-20" x1="815.16" y1="1005.93" x2="815.16" y2="989.67" xlink:href="#linear-gradient-14"/><linearGradient id="linear-gradient-21" x1="839.07" y1="1010.05" x2="882.29" y2="1010.05" xlink:href="#linear-gradient-14"/><linearGradient id="linear-gradient-22" x1="1280.97" y1="876.51" x2="1109.25" y2="1014.56" gradientUnits="userSpaceOnUse"><stop offset=".03" stop-color="#5e3791" stop-opacity="0"/><stop offset=".96" stop-color="#582994"/></linearGradient><pattern id="arrow_up" data-name="arrow up" width="32" height="32" patternTransform="matrix(.54 0 0 .54 25.04 5.75)" patternUnits="userSpaceOnUse" viewBox="0 0 32 32"><path class="cls-1" d="M0 0h32v32H0z"/><path class="cls-2" d="M10.29 12.8l-1.27-1.26-5.99 5.99 1.26 1.27 6-6z"/><path class="cls-2" d="M9.03 11.54L7.76 12.8l6 6 1.26-1.27-5.99-5.99z"/><path class="cls-3" d="M8.11 12.72H9.9v10.52H8.11z"/></pattern><linearGradient id="linear-gradient-23" x1="998.07" y1="1040.34" x2="999.44" y2="1026.53" xlink:href="#linear-gradient-14"/><linearGradient id="linear-gradient-24" x1="-510.09" y1="-1736.41" x2="-510.09" y2="-1789.29" gradientTransform="translate(1513.75 2724.46)" xlink:href="#linear-gradient-14"/><linearGradient id="linear-gradient-25" x1="976.27" y1="1035.95" x2="1020.93" y2="1035.95" xlink:href="#linear-gradient-14"/><linearGradient id="linear-gradient-26" x1="1028.14" y1="943.35" x2="1033.77" y2="943.35" xlink:href="#linear-gradient-14"/><linearGradient id="linear-gradient-27" x1="428.24" y1="2647.99" x2="447.49" y2="2647.99" gradientTransform="rotate(-33.95 -2045.967 816.131)" xlink:href="#linear-gradient-14"/><linearGradient id="linear-gradient-28" x1="-4533.04" y1="1057.44" x2="-4533.04" y2="1105.56" gradientTransform="matrix(-1 0 0 1 -3365.46 0)" xlink:href="#linear-gradient-19"/><linearGradient id="linear-gradient-29" x1="-4521.32" y1="1046.3" x2="-4532.08" y2="1073.33" gradientTransform="matrix(-1 0 0 1 -3365.46 0)" xlink:href="#linear-gradient-19"/><linearGradient id="linear-gradient-30" x1="-4575.51" y1="1064.31" x2="-4575.51" y2="1097.92" gradientTransform="matrix(1 0 0 -1 5785.57 2162.22)" xlink:href="#linear-gradient-19"/><linearGradient id="linear-gradient-31" x1="-5584.72" y1="1190.71" x2="-5584.72" y2="1203.78" gradientTransform="matrix(-1 0 0 1 -4352.02 0)" xlink:href="#linear-gradient-19"/><linearGradient id="linear-gradient-32" x1="-4279.03" y1="1190.71" x2="-4279.03" y2="1203.78" gradientTransform="matrix(-1 0 0 1 -3099.62 0)" xlink:href="#linear-gradient-19"/><linearGradient id="linear-gradient-33" x1="64.85" y1="1190.71" x2="64.85" y2="1203.78" gradientTransform="translate(1066.72)" xlink:href="#linear-gradient-19"/><linearGradient id="linear-gradient-34" x1="115.35" y1="1192.31" x2="115.35" y2="1106.08" gradientTransform="translate(1066.72)" xlink:href="#linear-gradient-19"/><linearGradient id="linear-gradient-35" x1="358.39" y1="1060.82" x2="358.39" y2="1165.06" gradientTransform="matrix(.95 -.04 .04 1 829.75 -66.34)" xlink:href="#linear-gradient-19"/><linearGradient id="linear-gradient-36" x1="115.16" y1="1112.3" x2="115.16" y2="1089.11" gradientTransform="translate(1066.72)" xlink:href="#linear-gradient-19"/><linearGradient id="linear-gradient-37" x1="115.87" y1="1193.4" x2="115.87" y2="1170.65" gradientTransform="translate(1066.72)" xlink:href="#linear-gradient-19"/><linearGradient id="linear-gradient-38" x1="1102.88" y1="1208.63" x2="1102.88" y2="1044.28" xlink:href="#linear-gradient-19"/><linearGradient id="linear-gradient-39" x1="897.82" y1="1208.63" x2="897.82" y2="1044.28" xlink:href="#linear-gradient-19"/><linearGradient id="linear-gradient-40" x1="1000.63" y1="1024.56" x2="1000.63" y2="1061.25" xlink:href="#linear-gradient-19"/><linearGradient id="linear-gradient-41" x1="-4563.2" y1="1057.98" x2="-4563.2" y2="1106.09" gradientTransform="matrix(-1 0 0 1 -3365.46 0)" xlink:href="#linear-gradient-19"/><linearGradient id="linear-gradient-42" x1="-4551.49" y1="1046.84" x2="-4562.24" y2="1073.87" gradientTransform="matrix(-1 0 0 1 -3365.46 0)" xlink:href="#linear-gradient-19"/><linearGradient id="linear-gradient-43" x1="938.12" y1="1116.89" x2="938.12" y2="1243.82" xlink:href="#linear-gradient-19"/></defs><title>scene--onboarding-v3-expanded</title><g id="Layer_1" data-name="Layer 1"><path class="cls-4" d="M-1.77-4.01h2002.85v2001.63H-1.77z"/><path class="cls-5" d="M-1.77.49h2002.85v628.48H-1.77z"/><path class="cls-6" d="M-1.77 1119.93h2002.85v881.76H-1.77z"/><path class="cls-7" d="M714.75 1104.69H34.28c-9.17 0-18.37-.16-27.54 0H5.53a.58.58 0 0 0 0 1.16H686c9.18 0 18.38.18 27.55 0h1.21a.47.47 0 0 0 0-.93zm1259.85.19q-37.49-.11-75-.18l-103-.13-123.87-.09-135.67-.07H907.72a.58.58 0 0 0 0 1.16h860.33l108.7.08q41.34 0 82.66.1h15.19a.47.47 0 0 0 0-.93zM.91 1120.12q45.87.09 91.75.11 78.85.06 157.72.07h1444.01q87.16 0 174.34.08 56.57 0 113.12.12h16.54a.58.58 0 0 0 0-1.15q-47.85-.13-95.71-.13-80.42-.08-160.83-.09H.91a.47.47 0 0 0 0 .93z"/><rect class="cls-8" x="1269.89" y="1075.77" width="13.58" height="20.36" rx="1.42" ry="1.42"/><path class="cls-9" d="M1273.26 1080.42h6.85v5.09h-6.85z"/><path class="cls-10" d="M1273.26 1086.3h6.85v5.09h-6.85z"/></g><g id="Layer_2" data-name="Layer 2"><path class="cls-7" d="M6.84 629h39.52l84.89.06 119.42.06 142.5.07 155.85.08 157.83.07 148.42.06 129.31.05h162.55a.58.58 0 0 0 0-1.16h-135.39l-122.9-.05H744.19l-156.68-.05-157.32-.06H6.84a.47.47 0 0 0 0 .93z"/><path class="cls-11" d="M979.45 555a.5.5 0 0 0 0-1 .5.5 0 0 0 0 1z"/><path class="cls-7" d="M1178.47 629h30.56l63.2.06 87.47.06 104.41.08 113.05.07 113.28.07 106.35.06 90.71.05h107.34a.58.58 0 0 0 0-1.16h-88.53l-85.82-.05h-103.38l-112.66-.05-113.51-.06h-312.42a.47.47 0 0 0 0 .93z"/><path class="cls-12" d="M721.93 793.01h561.22v187.15H721.93z"/><path class="cls-13" d="M1283.15 943.84v36.32H721.93v-31.11h28.5v21.44h9.42v-34.65l22.56 16.43v22.51h49.35v-31.26h15.47V978h20.34v-11h-1.07v-7.18h21.34v-17.61a1.75 1.75 0 0 1 1.76-1.75h13.1a1.75 1.75 0 0 1 1.76 1.75v32.57h15.3v-10.65h9.72a12.58 12.58 0 0 1 12.42 10.65h6.1v-15.2a2.55 2.55 0 0 1 2.54-2.55h11.56a2.54 2.54 0 0 1 2.54 2.55v15.2h12.22v-30.94h22.7v23.29h37v7.65h9.44v-3.19a11.28 11.28 0 1 1 22.55 0v8.07h49.35v-36.14h15.47v35.54h20.35V967h-1.08v-7.18H1174v-17.61a1.75 1.75 0 0 1 1.76-1.75h13.1a1.75 1.75 0 0 1 1.76 1.75v32.57h15.31v-10.65h9.72a12.57 12.57 0 0 1 12.35 10.65h6.12v-15.2a2.54 2.54 0 0 1 2.54-2.55h11.55a2.55 2.55 0 0 1 2.54 2.55v15.2H1263v-30.94z"/><path class="cls-14" d="M819.06 892c7.66-.25 13.34-6.84 18.4-12.6s11.92-11.7 19.41-10.07c9 2 14.21 14.15 23.41 13.47 5.27-.39 9.68-5.2 15-4.76s8.1 6 12.16 9.33c5.82 4.72 14.11 4.54 23.47 6.07z"/><path class="cls-15" d="M1031.44 844.55a43.68 43.68 0 0 0 18.32-7.51c3.79-2.7 7.9-6.22 12.45-5.25 3.54.75 6 4.07 9.5 5.08 5.81 1.69 11.83-3.57 17.74-2.29 3.83.84 6.56 4.2 10.09 5.9 9.56 4.6 21.37-5.13 34.8 3.82z"/><path class="cls-7" d="M1286.33 788.83c.64 58 0 116 .25 174l.06 10v4.43c0 1.52.47 3.78 0 5.24-.35 1.18 1 0 .11.36-.68.31-2.27 0-3 0h-71.15l-84.43.08-99.14.09-102.23.1-93.53.08-72.42.07h-39.14c-.83 0-2.43-.32-3.22 0h-.48c.87-.12.3 1 .51-.43.36-2.51 0-5.35 0-7.88v-14.53q-.12-47.26-.23-94.53-.1-36.9-.19-73.81a11.42 11.42 0 0 0 0-2.74c-.32-1.1.56 0-.49-.11a16.35 16.35 0 0 0 2 0h567.17a.5.5 0 0 0 0-1h-546c-7.4 0-14.8-.15-22.19 0h-.95a.52.52 0 0 0-.51.51v19.45q.06 23.22.11 46.43l.14 56.45.12 48.59v16.19c0 2.26-.56 5.39 0 7.61a1.29 1.29 0 0 1 0 .34.53.53 0 0 0 .51.51h56.74l61.12-.06 74.81-.07 81.95-.08 82.43-.08 77.13-.07 65.15-.06h46.7c7.39 0 14.8.12 22.19 0h.94a.51.51 0 0 0 .5-.5c-.46-51.29-.06-102.59-.23-153.88q-.06-20.33-.3-40.64a.43.43 0 0 0-.81-.06z"/><path class="cls-16" d="M995.26 792.9h13.93v187.3h-13.93z"/><path class="cls-7" d="M1001.57 794.72q.18 33.67.28 67.36.14 39.95.09 79.9 0 19.26-.14 38.51a.54.54 0 0 0 1.07 0q.25-36.48.13-73-.11-39.18-.29-78.35c-.07-11.48-.2-23-.33-34.46a.41.41 0 0 0-.81 0z"/><path class="cls-17" d="M727 1014.26h162a2.47 2.47 0 0 1 2.47 2.47v81.48a2.45 2.45 0 0 1-2.45 2.45H725.39a2.28 2.28 0 0 1-2.28-2.28v-80.23a3.89 3.89 0 0 1 3.89-3.89z"/><path class="cls-18" d="M886.1 1094.18h-67c-3.61 0-7.36-.29-11 0-1.29.1-.12.65-.19.16a32.7 32.7 0 0 1 0-4.2v-37.67c0-10.45-.84-21.29 0-31.71.09-1.1-1 .08 0 0 1.32-.12 2.7 0 4 0h71.94a7.25 7.25 0 0 1 2.23 0c-1.11-.55-.59 0-.59 1.42v72.62a.6.6 0 0 0 1.2 0v-74.64a.61.61 0 0 0-.6-.6H807.3a.62.62 0 0 0-.6.6v74.64a.62.62 0 0 0 .6.6h78.8a.6.6 0 0 0 0-1.22z"/><path class="cls-18" d="M807.38 1094.18h-67.11c-3.62 0-7.38-.29-11 0-1.29.1-.12.65-.19.16a32.7 32.7 0 0 1 0-4.2v-37.67c0-10.44-.84-21.29 0-31.71.09-1.1-1.05.08 0 0 1.32-.12 2.71 0 4 0h72a7.25 7.25 0 0 1 2.23 0c-1.11-.55-.59 0-.59 1.42v72.62a.6.6 0 0 0 1.2 0v-74.64a.61.61 0 0 0-.6-.6h-78.83a.62.62 0 0 0-.6.6v74.64a.62.62 0 0 0 .6.6h78.89a.6.6 0 0 0 0-1.22z"/><path class="cls-18" d="M802 1056.92c0 1.46-.64 3.08-2.32 3.19a3.91 3.91 0 0 1-3.76-2.28 3.13 3.13 0 0 1 2.32-4 3.17 3.17 0 0 1 3.76 3.06c0 .64 1 .64 1 0a4.12 4.12 0 1 0-8.21.46c.28 2.27 2.69 3.81 4.89 3.73s3.26-2.17 3.32-4.19c0-.61-1-.61-1 .03zm16.43 0c0 1.46-.64 3.08-2.33 3.19a3.91 3.91 0 0 1-3.75-2.28 3.12 3.12 0 0 1 2.31-4 3.18 3.18 0 0 1 3.77 3.06c0 .64 1 .64 1 0a4.12 4.12 0 1 0-8.21.46c.27 2.27 2.69 3.81 4.88 3.73s3.27-2.17 3.33-4.19c.02-.61-.98-.61-1 .03z"/><path class="cls-19" d="M881.48 1125.3h-4.93l-4.15-9a24.08 24.08 0 0 0-12-3.46H752.07a23 23 0 0 0-11.38 3l-4.35 9.43h-4.93l8.12-24.64h8.18l-3.25 7h124l-3.25-7h8.18z"/><path class="cls-18" d="M740.27 1101.11h6.52a.5.5 0 0 0 0-1h-6.52a.5.5 0 0 0 0 1zm3.28 7.32l-2.53 6c-.25.59.61 1.1.86.5l2.54-6c.24-.58-.62-1.09-.87-.5zm128.88-8.32h-6.52a.5.5 0 0 0 0 1h6.52a.5.5 0 0 0 0-1zm-4.15 8.82l2.54 6c.24.6 1.11.09.86-.5l-2.53-6c-.25-.59-1.12-.08-.87.5z"/><rect class="cls-20" x="731.53" y="960.42" width="15.42" height="53.83" rx=".26" ry=".26"/><rect class="cls-21" x="747.92" y="960.42" width="15.42" height="53.83" rx=".26" ry=".26"/><rect class="cls-22" x="764.24" y="960.42" width="15.42" height="53.83" rx=".26" ry=".26"/><path class="cls-23" d="M783.75 1014.22l6.87-.62a.12.12 0 0 0 .11-.14l-3.66-27.23c0-.07-7.13.58-7.13.65l3.67 27.22a.14.14 0 0 0 .14.12z"/><path class="cls-24" d="M790.88 1014.19l3.56-.32a.09.09 0 0 0 .08-.09l-2.83-21.26-3.65.25 2.75 21.34a.09.09 0 0 0 .09.08z"/><circle class="cls-25" cx="739.24" cy="1006.84" r="3.57"/><circle class="cls-25" cx="755.63" cy="1006.84" r="3.57"/><circle class="cls-25" cx="771.95" cy="1006.84" r="3.57"/><rect class="cls-26" x="734.3" y="991.21" width="9.88" height="9.25" rx=".91" ry=".91"/><path class="cls-25" d="M740.19 992.23a17.21 17.21 0 0 0-4.59 0 .44.44 0 0 0 0 .88 35.25 35.25 0 0 0 4.48 0c.42 0 .6-.72.11-.8zm1.61 1.45a42.78 42.78 0 0 0-6.2 0 .45.45 0 0 0 0 .89c2.06.05 4.13 0 6.2 0a.42.42 0 0 0 0-.83zm-2.26 1.43a19 19 0 0 0-4.06 0c-.53.1-.34.82.12.88a30.53 30.53 0 0 0 3.94-.08.41.41 0 0 0 0-.82z"/><rect class="cls-26" x="750.56" y="991.21" width="9.88" height="9.25" rx=".91" ry=".91"/><path class="cls-25" d="M758.51 992.23a15.51 15.51 0 0 0-3.2-.11 25 25 0 0 0-3.46.07.44.44 0 0 0 0 .88c1.15.06 2.31 0 3.46 0a24.4 24.4 0 0 0 3.2 0c.4-.06.38-.71 0-.79zm-.46 1.45a42.77 42.77 0 0 0-6.2 0 .45.45 0 0 0 0 .89c2.07.05 4.14 0 6.2 0a.42.42 0 0 0 0-.83z"/><rect class="cls-26" x="766.95" y="991.21" width="9.88" height="9.25" rx=".91" ry=".91"/><path class="cls-25" d="M772.84 992.23a17.21 17.21 0 0 0-4.59 0 .44.44 0 0 0 0 .88 35.25 35.25 0 0 0 4.48 0c.42 0 .59-.72.11-.8zm1.6 1.45a42.63 42.63 0 0 0-6.19 0 .45.45 0 0 0 0 .89c2.06.05 4.13 0 6.19 0a.42.42 0 0 0 0-.83z"/><path class="cls-27" d="M799.59 1000.52a3.84 3.84 0 0 1-.69-.07 2.88 2.88 0 0 0 .15-.66c.09-1-.75-3.16-2-2.17-1 .77-.62 2.63.29 3.3a1.64 1.64 0 0 1-.85.23c-.63 0-.64 1 0 1a2.72 2.72 0 0 0 1.86-.79 3.72 3.72 0 0 0 1.28.16h.35v-1zm-1.61-.42a1 1 0 0 1-.54-1.13c.12-.68.37-.57.55 0a1.68 1.68 0 0 1 .01 1.13z"/><path class="cls-28" d="M830.64 998.74h-2a11 11 0 0 0-3-5.08l-.32-4.58a.4.4 0 0 0-.63-.3l-2.81 2.14a21 21 0 0 0-8.68-2.22c-8 0-13.51 3-13.71 11.42v1c.14 3.79 1.57 6.39 3.85 8.1l.71 5.08a.41.41 0 0 0 .39.36h2.71a.4.4 0 0 0 .39-.33l.62-3a25.85 25.85 0 0 0 6 .63 23.73 23.73 0 0 0 5.24-.55l.4 2.86a.4.4 0 0 0 .39.36H823a.4.4 0 0 0 .39-.33l1-4.91a9.69 9.69 0 0 0 3.91-5h2.36a.15.15 0 0 0 .15-.15v-5.37a.15.15 0 0 0-.17-.13z"/><path class="cls-25" d="M824 996.23a1.15 1.15 0 0 0-1 1.34 1.11 1.11 0 0 0 1.43.76 1.09 1.09 0 0 0 .48-1.54 1.06 1.06 0 0 0-1.6-.08"/><path class="cls-25" d="M824 995.82a1.61 1.61 0 0 0-1.44 1.95 1.59 1.59 0 1 0 2.87-1.26 1.58 1.58 0 0 0-2.45-.18.54.54 0 0 0 .77.77c.58-.54 1.2.44.52.73a.59.59 0 0 1-.71-.34.7.7 0 0 1 .55-.85c.44-.12.36-.89-.11-.82zm-7.15-4.69a5.06 5.06 0 0 0-.66-.24h-.15a12.13 12.13 0 0 0-2.81-.41 18.52 18.52 0 0 0-2.49.12h-.11a5.3 5.3 0 0 0-.83.18v-.91a7.38 7.38 0 0 1 .78-.19h.11a13.19 13.19 0 0 1 2.54-.19 10.84 10.84 0 0 1 2.88.42h.15a5.14 5.14 0 0 1 .59.22zm-28.92 3.97c.64 5.83 1.78 11.59 2.45 17.41.07.63 1.07.64 1 0-.67-5.83-1.89-11.58-2.63-17.41-.07-.51-.88-.52-.82 0z"/><path class="cls-29" d="M882.29 1006.77v6.56a.87.87 0 0 1-.88.88H840a.87.87 0 0 1-.88-.88v-6.56a.87.87 0 0 1 .88-.88h13.43v1.78a1 1 0 0 0 1 1H867a1 1 0 0 0 1-1v-1.78h13.42a.87.87 0 0 1 .87.88z"/><path class="cls-30" d="M1300.65 633l89.35 388.17c-5 .3-65.91 25.72-104.6-1.24a34.62 34.62 0 0 0-24-6c-10.22 1.41-17.49 10.24-26 16.09a49.53 49.53 0 0 1-47.49 4.23c-10.42-4.7-18.82-12.9-28.49-19s-22.06-10.08-32.44-5.29l-36.43-36.8c6.16-7.92 4.44-19.41.6-28.68s-9.53-18-10.65-28c-1.53-13.67 6-26.89 15.5-36.8s21.2-17.57 31-27.21a105.19 105.19 0 0 0 30.2-60.11c2.13-15.46.89-31.73 7-46.09 9.94-23.21 35.64-34.44 58.21-45.76 31.27-15.71 61.87-37.2 78.24-67.51z"/><g class="cls-31"><path class="cls-32" d="M1300.65 1023c-5.05.3-10.47-1.16-15.26-3.05-7.76-3.07-15.71-7.17-24-6-10.22 1.41-17.49 10.24-26 16.09a49.53 49.53 0 0 1-47.49 4.23c-10.42-4.7-18.82-12.9-28.49-19s-22.06-10.08-32.44-5.29l-36.43-36.8c6.16-7.92 4.44-19.41.6-28.68s-9.53-18-10.65-28c-1.53-13.67 6-26.89 15.5-36.8s21.2-17.57 31-27.21a105.24 105.24 0 0 0 30.2-60.11c1.44-10.45 66.47 98.63 108.47 170.41 3.36 5.75 9.41 19.71 9.41 19.71l12.62 18.21z"/></g><path class="cls-33" transform="rotate(-20.52 987.497 1004.23)" d="M986.83 972.77h1.79v63.22h-1.79z"/><path class="cls-34" d="M1004.25 1035c0 3.12-2.53 3.24-5.65 3.24s-5.65-.12-5.65-3.24a5.65 5.65 0 0 1 11.3 0z"/><path class="cls-35" transform="rotate(59.4 1003.697 959.865)" d="M1002.77 928.16h1.79v63.22h-1.79z"/><path class="cls-36" d="M977.83 1033.41h41.53a1.56 1.56 0 0 1 1.56 1.56v3.53h-44.65v-3.5a1.56 1.56 0 0 1 1.56-1.59z"/><circle class="cls-33" cx="976.96" cy="975.72" r="2.81"/><circle class="cls-37" cx="1030.95" cy="943.35" r="2.81"/><path class="cls-25" d="M993.71 1033.71c3.22.23 6.48.32 9.71.36a.5.5 0 0 0 0-1c-3.22-.14-6.48-.25-9.71-.21a.43.43 0 0 0 0 .85zm-15.81 5.08c13.79.4 27.67.46 41.47.26a.54.54 0 0 0 0-1.07c-13.81 0-27.67-.4-41.47 0a.42.42 0 0 0 0 .83z"/><path class="cls-38" d="M1053 954l-16 10.75c-4.31-6.4-5.87-13.31-4.33-17.49l-4.19-6.22a1.91 1.91 0 0 1 .51-2.65l2.57-1.72a1.89 1.89 0 0 1 2.64.52l4.19 6.22c4.44.1 10.25 4.14 14.61 10.59z"/><path class="cls-25" d="M1033.63 946.91a15.68 15.68 0 0 1 2.27-1.79 20.35 20.35 0 0 1 2.49-1.08c.59-.25.12-1-.4-.94a8.13 8.13 0 0 0-5.06 3.27c-.3.44.34.85.7.54z"/><path class="cls-39" d="M1151.05 1057.44l17.06 42.89a8.3 8.3 0 0 0 15.43-6.14l-14.62-36.75z"/><path class="cls-40" d="M1130.37 1059.82a5 5 0 0 0 5 5h51.79a5 5 0 0 0 3.53-8.49 5.08 5.08 0 0 0-3.53-1.46h-51.79a5 5 0 0 0-5 4.95z"/><rect class="cls-41" x="1205.34" y="1064.31" width="9.44" height="33.61" rx="4.72" ry="4.72" transform="rotate(180 1210.055 1081.11)"/><path class="cls-42" d="M1228.4 1199.49a4.3 4.3 0 0 0 8.58.37v-9.15h-2.24v5a4.3 4.3 0 0 0-6.35 3.77z"/><path class="cls-18" d="M1236.46 1192.33h-1.47a.5.5 0 0 0 0 1h1.47c.47 0 .64-.95 0-1zm-1.88 3.93a5.39 5.39 0 0 1 1.34 2.92c.07.63 1.07.64 1 0a6.45 6.45 0 0 0-1.64-3.62c-.43-.48-1.13.23-.7.7z"/><path class="cls-43" d="M1175.12 1199.49a4.29 4.29 0 0 0 8.57.37v-9.15h-2.24v5a4.29 4.29 0 0 0-6.34 3.77z"/><path class="cls-18" d="M1183.17 1192.33h-1.47a.5.5 0 0 0 0 1h1.47c.47 0 .64-.95 0-1zm-1.88 3.93a5.25 5.25 0 0 1 1.34 2.92c.07.63 1.08.64 1 0a6.5 6.5 0 0 0-1.63-3.62c-.44-.48-1.14.23-.71.7z"/><path class="cls-44" d="M1135.86 1199.49a4.29 4.29 0 0 1-8.57.37v-9.15h2.24v5a4.29 4.29 0 0 1 6.34 3.77z"/><path class="cls-18" d="M1127.81 1193.25a14.44 14.44 0 0 1 1.47 0 .5.5 0 0 0 0-1 14.44 14.44 0 0 0-1.47 0c-.64 0-.64 1 0 1zm1.19 2.31a6.45 6.45 0 0 0-1.64 3.62c-.07.64.93.63 1 0a5.39 5.39 0 0 1 1.34-2.92c.43-.47-.27-1.18-.7-.7z"/><path class="cls-45" d="M1237.15 1189.44v2.87h-3.09l-46-8.41v1.31a6 6 0 1 1-12 0v-1.31l-46 8.41H1127v-2.89a7.14 7.14 0 0 1 4.88-6.77l43.83-11.82h.33v-64.75h12v64.75l44.24 11.83a7.13 7.13 0 0 1 4.87 6.78z"/><path class="cls-46" d="M1183.51 1040.45c0-10.32 3.52-30.21 9.28-44.09a25.81 25.81 0 0 1 6.34-9.64c9.08-8 38.47-11.85 47.33-.6 2.39 3 2.75 7.33 2.71 11.26-.15 15.38-6.94 28.61-10.81 43.43a104.84 104.84 0 0 0-3.8 28.75c0 4.86.74 13.44-16.81 14.16a109.56 109.56 0 0 1-24.9-1.9c-1.92-.36-3.94-.84-5.35-2.26-1.63-1.65-2-4.19-2.36-6.55-1.14-8.71-1.63-22.24-1.63-32.56z"/><path class="cls-47" d="M1140.89 1090.15c20-1 76.72-.42 81.2-.42s11.39.22 11.39 8.87-5.79 10.2-12.13 10.36c-12.3.3-78 1.19-82.38.83-2.51-.21-8.7-2-8.7-10s10.62-9.64 10.62-9.64z"/><path class="cls-48" d="M1179.89 1172h5.39v19.38a1.08 1.08 0 0 1-1.08 1.08h-3.2a1.08 1.08 0 0 1-1.08-1.08V1172h-.03z"/><path class="cls-18" d="M1180.19 1190.23c-.07-3.23-.06-6.47-.07-9.7 0-2.41-1.21-8.76 2.29-9 2.41-.17 2.3 2.2 2.3 3.92v12.25a.5.5 0 0 0 1 0v-10.44c0-2.68.64-6.91-3.3-6.73-3.65.16-3.3 3.47-3.3 6.17 0 4.51 0 9 .08 13.52a.5.5 0 0 0 1 0zM1180 1089c-5 0-10 .21-15 .22a.5.5 0 0 0 0 1c5 0 10-.23 15-.22a.5.5 0 0 0 0-1zm6.94 19.94c-3.45.08-6.91 0-10.37.12-.64 0-.64 1 0 1 3.46-.14 6.92 0 10.37-.12a.5.5 0 0 0 0-1zm30.9-25.31c8.52-1.44 8.18-9.45 9.21-16.33.88-5.92.87-11.86 1.12-17.82a87 87 0 0 1 3.28-19.28c1.68-6.06 3.78-12 5.93-17.87 1.94-5.34 4-10.88 4.42-16.59.35-4.66-.64-9.57-4.41-12.67a18.31 18.31 0 0 0-9.79-3.62 47.38 47.38 0 0 0-27.17 5.24c-.57.31-.07 1.17.5.86a47 47 0 0 1 25.1-5.22 20.91 20.91 0 0 1 8.55 2.09c5.22 2.73 6.69 8.2 6.18 13.71s-2.58 11.1-4.5 16.36-3.74 10.4-5.28 15.71a100.48 100.48 0 0 0-3.25 14.94c-.7 5.43-.57 10.88-.9 16.33-.28 4.65-1 9.27-1.54 13.89-.6 4.88-2.53 8.43-7.72 9.31-.63.11-.37 1.07.27 1z"/><path class="cls-49" d="M1177.46 987.42c-4 12.61-10.5 26.34-17.82 38.52l-15 .58s4.4 9.32 7.09 11.47l11.36 8.17s11.81-16.05 14.39-27.11 6.51-29.23 4.24-31.5a2.9 2.9 0 0 0-4.26-.13z"/><path class="cls-50" d="M1128.56 1012.18L1106 1011l-17.66-36.56a.93.93 0 0 1 .89-1.34l19.87 1a1.89 1.89 0 0 1 1.6 1.06z"/><path class="cls-50" d="M1155.92 1036.74l-19.05-1a2.7 2.7 0 0 1-1.56-.61s-27-19.87-28.31-21a3 3 0 0 1-1-3.16l22.54 1.17 28 23.06a.87.87 0 0 1-.62 1.54z"/><path class="cls-25" d="M1155.92 1035.4l-15-10.28-9.92-6.81c-2.29-1.58-4.71-2.16-3.72-5.38.19-.62-.78-.88-1-.27-.92 3 .25 3.8 2.39 5.28l9.68 6.65 17 11.68c.53.36 1-.5.5-.87zm-46.38-59.27c5.49 11.7 11.28 23.25 16.8 34.93.27.58 1.13.07.86-.51-5.52-11.68-11.31-23.23-16.79-34.92-.28-.58-1.14-.08-.87.5zm-4.19 15.05c-1.27.75-.59 3.29-.15 4.35s1.72 3.06 3.19 2.22.71-3 .25-4.13c-.61-1.5-1.47-3.13-3.26-2.24-.58.29-.07 1.15.5.87 1.06-.53 1.56 1.06 1.84 1.76.2.49 1.09 2.9-.16 2.92-.75 0-1.39-1.55-1.57-2.13s-.69-2.42-.13-2.75a.5.5 0 0 0-.51-.87zm1.48 20.24c5.87.37 11.74.64 17.62.86.64 0 .64-1 0-1-5.88-.22-11.75-.49-17.62-.86-.64 0-.64 1 0 1z"/><path class="cls-25" d="M1128.45 1015.07l2.36 1.82c.51.39 1-.48.5-.87l-2.36-1.82c-.51-.39-1 .48-.5.87zm3.85 2.93l2.36 1.81c.51.39 1-.47.5-.86l-2.36-1.82c-.51-.39-1 .48-.5.87z"/><path class="cls-49" d="M1018.46 1024l-5.18-2.26a5.57 5.57 0 0 1-1.73-1 5.35 5.35 0 0 1-1.13-2.05c-2.87-8-3.55-16.87-8.09-24l-.67-.5c-2.82 5.37-3.77 11.51-4.39 17.54a54.72 54.72 0 0 0-.17 12.53 22.25 22.25 0 0 0 4.68 11.47l.52 1.13 13.94-4zm-6.57-36.53l3.11 4.4c2.57 3.65 5 5.9 7.55 9.53a21.53 21.53 0 0 0 2.89 3.49c2.65 2.41 8.71 3.76 12.18 4.62l-.6 9.9-14.14 1.61a32.19 32.19 0 0 1-10.5-15.35 34 34 0 0 1-.49-18.2z"/><path class="cls-51" d="M1106.89 1039c3.64 1 33.16 40.51 47.26 50.08a31 31 0 0 0 19.29 6.76c17 0 19.69.31 24.33-13.22 2.35-6.83 2.63-16.16 2.63-16.16s-67.56-44.53-69.52-45.74-7.63-6.77-27-6.77-89.86 7.88-89.86 7.88l-2.23 12.52s23.63-1.21 32.32.61 21.2 3.83 33.12 3.83 26.03-.79 29.66.21z"/><path class="cls-11" d="M995.91 1039.05c-.37-6.81-2.46-43.69-2.68-47.83 2.43-1.13 5.45 1.34 6.18 3.18l4 11.64a10.75 10.75 0 0 0-2.63 6.34 30.85 30.85 0 0 0 2.43 16.81c1.07 2.48 5 5 4 8.32 0 0-3.92 1.54-6 1.51s-5.3.03-5.3.03zm22.33-11.97c-3-6.4-17.72-42.32-19.54-46.21 1.89-2 6.58-.8 8 .68l8.35 9.64a11.19 11.19 0 0 0-.06 7.12c1 3.78 2 9.94 7.82 15.66 1.67 1.63 4.12 2.94 5 5.42a2 2 0 0 1-.77 2.37z"/><path class="cls-52" d="M1002.54 1005a34.12 34.12 0 0 1-6.06-17c-.2-3 .11-6.52 2.29-7.32a3.53 3.53 0 0 1 2 0c4.34 1.08 7.63 6.89 9.14 12.23s2 10.92 4.27 16c1.86 4.1 9.64 15.86 3.95 18.18-2.84 1.16-4.57-.57-6-4.14s-6.35-13.69-9.59-17.95z"/><path class="cls-51" d="M1107.9 1014.11c-26.05-2-51.86-3.59-73.3-6 0 0 .55 8.52.85 12 0 0 65.39-3.83 69.07-4.49s3.38-1.51 3.38-1.51z"/><path class="cls-11" d="M1157.12 1036.19c3.83-1.78 13.89-12.61 16.49-33.07 1.43-11.25 1.27-22.86 8.26-30.48 8.29-9 19.52-7.9 30-5.14 7.67 2 13.13 9.27 13.45 19.75.64 21-11 85.84-29.48 104.27-3 0 6.56-21.08-6.19-30.8a392.28 392.28 0 0 0-34.39-23.93z"/><path d="M1037.94 1020c20.59-1.92 41.23-3.22 61.83-5.14.63-.06.64-1.06 0-1-20.6 1.92-41.24 3.22-61.83 5.14-.64 0-.64 1 0 1z"/><path class="cls-49" d="M1164.82 950.52l2.22-.66a1 1 0 0 1 .79.57c1 2.12 4.25 7.93 6.87 9.85s10.23-4.09 11.65-2.77 4.89 4.12 3.73 10c-.84 4.2-6.43 18.18.83 19.39s18.48-20 18.48-20c-6-7.73-10.82-17.12-13-24.07l-2-7a20.42 20.42 0 0 0-1.35-4.22c-4.24-9.67-14.43-14.48-22.81-10.87A15.39 15.39 0 0 0 1162 930c-1.46 4 1.31 17.52 1.65 19.33.12.75.57 1.23 1.17 1.19z"/><path class="cls-53" d="M1197.92 947.48c-5.29-3.15-11.36-10.39-11.36-10.39l-3.37-3s-7.57-.18-8.56-7.62c-3.08 1.34-10.43 3.39-12.11 2.24s1.06-4.57 4.66-6.84c2.3-1.46 12.69-7 21.46-.83 6.08 4.3 7.19 10.07 7.35 14.56a83.67 83.67 0 0 0 1.93 11.88z"/><path class="cls-53" d="M1197.52 947.08c3.82.69 6.68-4.08 2.27-7.45a21.93 21.93 0 0 1 1.76-4.87c5 .27 6.61-5.93 4.51-7.76 5 .21 7.66-8.23 2.72-10.37 4.27-8.84-4.75-16.89-11.07-12.84 1.29-12.37-18.94-6-14.1 1.64-3.62-3.26-14.09 2.35-8.19 10.53-2.49.41-8.07 3.72-8.15 5.89-3.54-2.5-7.48.48-5.75 2.92-2.4 1.59.68 6.24 4 3.67l17.42-7.64z"/><path class="cls-11" d="M1199.77 939.7s-28.15-15-32.57-17.87c-.41-1.15 3.89-6 8.2-5.86 4.37 2.35 26.11 18.84 26.11 18.84z"/><path class="cls-49" d="M1183.09 934a2.09 2.09 0 0 1 .94-1.63 3.68 3.68 0 0 1 4.42 0 5.8 5.8 0 0 1 1.22 7 3.38 3.38 0 0 1-2.23 1.62l-1.82-1.15-1.61-3.7s-.91-1.93-.92-2.14zm17.99 100.42c-3.14 1.88-33.48-7-46-10.27a3.85 3.85 0 0 1-2.21-1.58l-6.2-9.23a2.38 2.38 0 0 0-2.07-1.05l-9.35.41a1.49 1.49 0 0 0-1.4 1.21l-.45 2.34 5.87 4.86a2.91 2.91 0 0 1 1.61.8l3 2.95s6.66 5.7 7.16 5.93c14.23 6.57 36.08 16.8 49.58 17.84 3.34.26 7.22-.56 9-3z"/><path class="cls-49" d="M1200.44 1035.17c2.52-4.13 3.29-26.72 4-35.81.64-7.73 1.56-15.3 4.39-20.55.53-1 4.32-7.45 8.89-5.85s6 6.4 5.85 10.9c-.59 16.48-3.56 43.75-11 57.43-1.27 2.33-2.71 4.71-5 6.09z"/><path class="cls-54" d="M1160.41 1026.05c1.5.4 3 .79 4.48 1.25.62.19.88-.78.27-1-1.48-.45-3-.84-4.48-1.24a.5.5 0 0 0-.27 1zm-8.9 5.23c2.77.59 4.72 2.57 7.31 3.54.6.23.87-.74.27-1-2.59-1-4.53-2.95-7.31-3.54-.63-.13-.9.83-.27 1z"/><path class="cls-55" d="M1099.77 1208.63l-2.33-164.35h10.87l-3.36 164.35h-5.18z"/><path class="cls-56" d="M894.71 1208.63l-2.32-164.35h10.86l-3.36 164.35h-5.18z"/><rect class="cls-57" x="875.72" y="1038.67" width="249.83" height="7.6" rx="3.8" ry="3.8"/><path class="cls-58" d="M1181.22 1058l17.06 42.89a8.3 8.3 0 0 0 15.42-6.14l-14.62-36.75z"/><path class="cls-59" d="M1160.53 1060.36a5 5 0 0 0 5 5h51.79a5 5 0 0 0 5-5 5 5 0 0 0-5-5h-51.79a5 5 0 0 0-5 5z"/><path class="cls-18" d="M1182.55 1065.62c11.32 0 22.72.45 34 .05 1.76-.07 3.75-.27 5-1.69s1.4-4.21.77-6.06c-1.18-3.44-5-3-8-3-.65 0-.64 1 0 1 1.22 0 2.47 0 3.68.09 2.92.26 4.12 2.81 3.53 5.61-.83 3.86-5.69 3.1-8.74 3.1l-30.28-.06a.5.5 0 0 0 0 1zm11.58 26.44c1.08 2.72 2.09 5.47 3.25 8.14 1.94 4.44 5.27 7 10.32 6.4 4.41-.5 7.51-5.61 6.86-9.78a40.14 40.14 0 0 0-2.45-7.68c-1.55-4.15-3.19-8.27-4.83-12.4-.23-.59-1.2-.33-1 .27 2.29 5.77 5 11.61 6.7 17.59a10.32 10.32 0 0 1 .51 4.73 7.46 7.46 0 0 1-7.14 6.29c-4.73 0-6.9-2.83-8.53-6.87-.94-2.31-1.85-4.64-2.77-7-.23-.59-1.2-.34-1 .26z"/><path class="cls-18" d="M1187.14 1068.63c3.4 8 6.4 16.23 9.46 24.4 1.8 4.82 3.28 11.44 9.57 11.74.64 0 .64-1 0-1-3.35-.16-5.43-2.63-6.58-5.55s-2.23-6-3.35-9c-2.66-7.07-5.29-14.15-8.24-21.11-.25-.59-1.11-.08-.86.51z"/><path class="cls-60" d="M933.32 999.11c1.44-2.47-.38-27.34.91-27.84s3.68 4.78 4.34 6.58c2.42-1.07 7.83-.8 11.26-.15.07-2.11 1-6.75 2.52-6.57s4.22 41.14-.4 62c2.11.23 3.66 2.13 2.76 5.45l-38 .12c-8.55-20.26 1.9-37.7 16.61-39.59z"/><path class="cls-61" d="M947.85 989.29a14.3 14.3 0 0 0 1.71-2.34.5.5 0 0 0-.43-.75 19.73 19.73 0 0 0-3.26 0 .51.51 0 0 0-.43.75 12 12 0 0 0 1.71 2.3c.42.48 1.13-.23.7-.71a10.16 10.16 0 0 1-1.54-2.09l-.44.75a19.73 19.73 0 0 1 3.26 0l-.43-.76a13.56 13.56 0 0 1-1.55 2.14c-.39.5.31 1.21.7.71z"/><path class="cls-61" d="M948 991.09a12.1 12.1 0 0 1 0-2.17c.07-.64-.93-.63-1 0a12.1 12.1 0 0 0 0 2.17c0 .64 1 .64 1 0zm-.16 25.91c-.36 5.42-.38 11-1.32 16.33-.11.63.85.9 1 .26 1-5.44 1-11.08 1.36-16.59 0-.64-1-.64-1 0zm-21.69 1.31c4.86-.91 9.07 1.53 10.08 6.49.84 4.11-.8 8.64-4.78 10.39a.51.51 0 0 0 .25.94c2.28-.21 6.43-.7 6.91 2.4.1.64 1.07.37 1-.26-.58-3.66-5.08-3.39-7.88-3.14l.25.93c4.53-2 6.28-7.34 5.15-11.94-1.3-5.32-6-7.74-11.22-6.78-.63.12-.36 1.09.27 1z"/><path class="cls-61" d="M946.9 1034.06a3 3 0 0 1 2.57.57c.71.86.52 2.45.47 3.49 0 .64 1 .64 1 0 .06-1.31.2-3.19-.79-4.23a3.86 3.86 0 0 0-3.25-.83c-.63.08-.64 1.08 0 1z"/><path class="cls-60" d="M904.5 990.82c2.55 2.32 3.73 5.41 4.34 8.8s-.21 6.94-1 10.31c-.54 2.39-1.3 4.74-1.61 7.18-.74 5.87 1.24 12.49 4.42 17.48a8.17 8.17 0 0 0 7.07 4.12l-1.62-6.48c-3.19-2.37-4.26-8-4.25-13.22a51.84 51.84 0 0 1 1.73-11.24 38.43 38.43 0 0 0 1.27-11.27c-.3-3.78-1.79-7.63-4.75-10 0 0-2.74-2.5-5.11-.86s-.49 5.18-.49 5.18z"/><path class="cls-62" d="M1099 1017.68a29.26 29.26 0 0 1-4.23 21h-7.5a29.21 29.21 0 0 1-4.24-21z"/><path class="cls-62" d="M1096.27 1033.23c0 .2-.17-.24 0-.19s.29.31.49.36c2.36.61 5.76-.67 6.77-2.89a7.82 7.82 0 0 0 .58-3.56c-.07-2-.94-6.13-5.41-6.13l.29 1.68a2.42 2.42 0 0 1 1.91.6 5.23 5.23 0 0 1 1.56 3.9 5.81 5.81 0 0 1-.42 2.62 4 4 0 0 1-4.48 2.13c-.15 0-.21-.23-.36-.26s-.06.29 0 .14z"/><path class="cls-25" d="M1087.61 1039a39 39 0 0 0 6.48.12.54.54 0 0 0 0-1.07 33.91 33.91 0 0 0-6.37.14c-.42 0-.61.74-.11.81zm10.19 7.54a50.72 50.72 0 0 0 8.89.11.54.54 0 0 0 0-1.07 44.42 44.42 0 0 0-8.78.14c-.43 0-.62.74-.11.82zm-203.73 0a46.48 46.48 0 0 0 8.09.11.54.54 0 0 0 0-1.07 40.94 40.94 0 0 0-8 .14c-.42 0-.61.74-.11.82z"/><path class="cls-63" d="M918.1 1145.76a1.53 1.53 0 0 0-1.52 1.75c1 6.32 4.14 28 4.14 37v22.44a1.75 1.75 0 0 0 1.75 1.75h31.41a1.76 1.76 0 0 0 1.75-1.75v-22.58c0-10.55 3.06-30.74 4-36.81a1.53 1.53 0 0 0-1.51-1.77zm28.59 8.23a2.26 2.26 0 0 1-2.25 2.25h-12.63a2.25 2.25 0 0 1-2.25-2.25v-.37a2.25 2.25 0 0 1 2.25-2.24h12.63a2.26 2.26 0 0 1 2.25 2.24z"/></g></svg>