<?xml version="1.0" encoding="UTF-8" standalone="no"?>
<svg
   xmlns:dc="http://purl.org/dc/elements/1.1/"
   xmlns:cc="http://creativecommons.org/ns#"
   xmlns:rdf="http://www.w3.org/1999/02/22-rdf-syntax-ns#"
   xmlns:svg="http://www.w3.org/2000/svg"
   xmlns="http://www.w3.org/2000/svg"
   id="svg24"
   version="1.1"
   height="768"
   width="1024">
  <metadata
     id="metadata30">
    <rdf:RDF>
      <cc:Work
         rdf:about="">
        <dc:format>image/svg+xml</dc:format>
        <dc:type
           rdf:resource="http://purl.org/dc/dcmitype/StillImage" />
      </cc:Work>
    </rdf:RDF>
  </metadata>
  <defs
     id="defs28" />
  <style
     id="style2"><![CDATA[   #title path, #tagline path, #letter path, #title polygon, #tagline polygon, #letter polygon{ fill: #138bfc !important; } #icon *{ fill: #138bfc !important; } ]]></style>
  <g
     id="g7">
    <title
       id="title4">background</title>
    <rect
       x="-1"
       y="-1"
       width="582"
       height="402"
       id="canvas_background"
       fill="none" />
  </g>
  <g
     id="g22">
    <title
       id="title9">Layer 1</title>
    
    <g
       id="logo-group">
      <g
         id="icon">
        <path
           id="path9"
           d="m351.600594,403.178166c-3.11440602,-1.8875188 -7.55007519,-6.32318797 -11.6082406,-11.7026165c0.18875188,-0.18875188 0.377503759,-0.471879699 0.566255639,-0.660631579c4.62442105,-5.85130827 10.0982256,-14.4395188 10.0982256,-21.895218c0,-10.3813534 -6.32318797,-15.1001504 -12.2688722,-15.1001504c-3.02003008,0 -5.94568421,1.22688722 -8.11633083,3.39753383c-1.8875188,1.8875188 -4.15254135,5.47380451 -4.15254135,11.7026165c0,6.88944361 4.05816541,15.2889023 9.06009023,22.4614737c-4.43566917,5.19067669 -8.87133835,9.15446617 -11.8913684,11.1363609c-2.8312782,-1.98189474 -6.51193985,-5.66255639 -9.90947368,-10.0038496c5.37942857,-7.45569925 9.90947368,-16.3270376 9.90947368,-23.593985c0,-10.3813534 -6.32318797,-15.1001504 -12.2688722,-15.1001504c-3.02003008,0 -5.94568421,1.22688722 -8.11633083,3.39753383c-1.8875188,1.8875188 -4.15254135,5.47380451 -4.15254135,11.7026165c0,7.26694737 4.53004511,16.1382857 9.90947368,23.593985c-3.49190977,4.43566917 -7.07819549,8.11633083 -10.0038496,10.0982256c-9.24884211,-5.47380451 -23.499609,-22.1783459 -23.499609,-32.7484511c0,-8.30508271 4.15254135,-11.7969925 7.92757895,-12.3632481c3.77503759,-0.566255639 8.49383459,1.79314286 10.0038496,7.17257143c0.28312782,1.03813534 1.32126316,1.60439098 2.3593985,1.32126316s1.60439098,-1.32126316 1.32126316,-2.3593985c-2.17064662,-7.55007519 -8.77696241,-10.6644812 -14.156391,-9.90947368c-8.30508271,1.13251128 -11.2307368,9.34321805 -11.2307368,16.0439098c0,13.3070075 17.1764211,31.7103158 26.5196391,36.6178647c0.0943759398,0.0943759398 0.28312782,0.0943759398 0.377503759,0.18875188l0.377503759,0l0.0943759399,0c0.0943759398,0 0.28312782,0 0.377503759,-0.0943759398l0.0943759398,0c0.0943759398,0 0.28312782,-0.0943759398 0.377503759,-0.18875188c3.11440602,-1.8875188 7.26694737,-5.85130827 11.3251128,-10.7588571c3.96378947,5.00192481 8.21070677,8.96571429 11.3251128,10.7588571l0.0943759399,0c0.0943759398,0.0943759398 0.28312782,0.0943759398 0.377503759,0.18875188l0.0943759398,0c0.18875188,0 0.28312782,0.0943759398 0.471879699,0.0943759398l0.0943759398,0l0.377503759,0l0.0943759399,0c0.0943759398,0 0.18875188,-0.0943759398 0.28312782,-0.0943759398l0.0943759399,0c3.68066165,-2.17064662 8.68258647,-6.79506767 13.2126316,-11.8913684c4.24691729,5.47380451 8.87133835,9.90947368 12.1744962,11.8913684c0.28312782,0.18875188 0.660631579,0.28312782 0.943759398,0.28312782c0.660631579,0 1.22688722,-0.28312782 1.60439098,-0.943759398c0.660631,-0.94376 0.377503,-2.076271 -0.566256,-2.642526l2.71e-7,-4.532e-7zm-49.075489,-34.258467c0,-3.96378947 1.03813534,-7.07819549 3.02003008,-9.06009023c1.4156391,-1.4156391 3.39753383,-2.26502256 5.37942857,-2.26502256c4.24691729,0 8.49383459,3.49190977 8.49383459,11.3251128c0,5.94568421 -3.77503759,13.6845113 -8.49383459,20.385203c-4.624421,-6.700691 -8.399459,-14.439518 -8.399459,-20.385203l3.5e-7,-1e-8zm27.369023,0c0,-3.96378947 1.03813534,-7.07819549 3.02003008,-9.06009023c1.4156391,-1.4156391 3.39753383,-2.26502256 5.37942857,-2.26502256c4.24691729,0 8.49383459,3.49190977 8.49383459,11.3251128c0,4.90754887 -3.30315789,11.7969925 -9.15446617,19.3470677c-4.341293,-6.417564 -7.738827,-13.684511 -7.738827,-19.347068l-7e-8,2.9e-7z" />
      </g>
      <g
         id="title">
        <path
           id="path14"
           d="m193.875931,354.787669l0,9.36q10.1828571,-10.5942857 20.88,-10.5942857q17.7942857,0 14.0914286,27.9771429q-1.02857143,8.02285714 -3.18857143,13.2685714q-2.05714286,5.24571429 -5.34857143,7.92t-6.89142857,3.6q-3.49714286,1.02857143 -8.53714286,1.02857143q-7.40571429,0 -14.6057143,-1.44q0,4.73142857 -0.72,9.66857143l-1.54285714,9.36l-18.72,0l9.77142857,-70.1485714l14.81142856,-6e-8zm-1.54285714,40.5257143l6.17142857,0q6.27428571,0 8.12571429,-2.36571429q1.95428571,-2.36571429 3.18857143,-11.1085714q1.13142857,-8.43428571 0.514285714,-11.0057143q-0.617142857,-2.67428571 -3.49714286,-2.67428571q-5.24571429,0 -11.8285714,6.37714286l-2.674285744,20.77714284z" />
        <path
           id="path18"
           d="m431.938526,354.787669l19.9542857,0q-1.85142857,12.1371429 -7.09714286,26.3314286q-5.2457,14.0914286 -9.66857143,21.7028571q-7.61142857,12.7542857 -17.0742857,18.5142857q-9.36,5.76 -21.8057143,5.65714286l-1.54284286,-10.5942857q0.411428571,-0.102857143 2.36571429,-0.72q1.95428571,-0.617142857 2.46855714,-0.822857143q0.514285714,-0.102857143 2.05714286,-0.72q1.64572857,-0.514285714 2.26285714,-0.822857143q0.72,-0.308571429 2.05714286,-0.925714286q1.44,-0.617142857 2.16,-1.23428571q0.822857143,-0.617142857 1.9543,-1.44q1.13141429,-0.72 2.05714286,-1.74857143q0.9257,-0.925714286 1.85142857,-2.05714286l-7.20001429,0q-2.46857143,0 -4.21714286,-1.44q-1.74857143,-1.54285714 -2.16,-3.90857143l-7.30285714,-45.7714286l20.3657143,0l2.6743,37.7485714q0,1.64571429 1.6457,1.64571429l3.29142857,0q7.30285714,-15.84 10.9028571,-39.3942857l5e-8,5.2e-8z" />
        <path
           id="path20"
           d="m510.087812,354.787669l0.411428571,8.12571429q9.66858571,-9.56571429 19.44,-9.56571429q10.8000143,0 12.8571429,8.33142857q8.74285714,-8.33142857 18.1028714,-8.33142857q7.30284286,0 10.6971286,3.90857143q3.49714286,3.80571429 2.57144286,10.6971429l-5.348586,37.954286l-18.5142857,0l4.52571429,-32.7085714q0.514285714,-4.01142857 -2.77714286,-4.01142857q-3.90855714,0 -9.97714286,5.04l-4.422857,31.68l-18,0l4.52571429,-32.7085714q0.411442857,-2.26285714 -0.205714286,-3.08571429q-0.617142857,-0.925714286 -2.46857143,-0.925714286q-3.90857143,0 -10.0799857,4.73142857l-4.422871,31.988571l-18.6171286,0l7.19998571,-51.12l14.502856815,4.6e-8z" />
        <path
           id="path22"
           d="m655.844783,354.787669l19.9542857,0q-1.85142857,12.1371429 -7.09714286,26.3314286q-5.24571429,14.0914286 -9.66857143,21.7028571q-7.61142857,12.7542857 -17.0742857,18.5142857q-9.36,5.76 -21.8057143,5.65714286l-1.54285714,-10.5942857q0.411428571,-0.102857143 2.36571429,-0.72q1.95428571,-0.617142857 2.46857143,-0.822857143q0.514285714,-0.102857143 2.05714286,-0.72q1.64571429,-0.514285714 2.26285714,-0.822857143q0.72,-0.308571429 2.05714286,-0.925714286q1.44,-0.617142857 2.16,-1.23428571q0.822857143,-0.617142857 1.95428571,-1.44q1.13142857,-0.72 2.05714286,-1.74857143q0.925714286,-0.925714286 1.85142857,-2.05714286l-7.2,0q-2.46857143,0 -4.21714286,-1.44q-1.74857143,-1.54285714 -2.16,-3.90857143l-7.30285714,-45.7714286l20.3657143,0l2.67428571,37.7485714q0,1.64571429 1.64571429,1.64571429l3.29142857,0q7.30285714,-15.84 10.9028571,-39.3942857l4e-8,5.2e-8z" />
        <path
           id="path24"
           d="m734.096926,354.787669l0.205714286,9.56571429q11.2114286,-11.0057143 22.8342857,-11.0057143q6.58285714,0 10.2857143,3.80571429q3.70285714,3.80571429 2.67428571,10.8l-5.348571,37.954286l-18.72,0l4.52571429,-32.0914286q0.411428571,-2.88 -0.308571428,-3.80571429q-0.617142857,-1.02857143 -2.77714286,-0.822857143q-4.83428571,0.102857143 -12.1371429,5.86285714l-4.32,30.8571429l-18.72,0l7.09714286,-51.12l14.708571042,-2.87e-7z" />
        <path
           id="path26"
           d="m839.895498,366.513384l-3.08571429,22.0114286q-0.411428571,2.46857143 0.308571429,3.29142857q0.72,0.72 3.39428571,0.72l6.37714286,0l0.925714286,12.4457143q-5.96571429,2.26285714 -15.7371429,2.26285714q-7.61142857,0 -11.6228571,-4.01142857q-3.90857143,-4.01142857 -2.88,-10.8l3.80571429,-25.92l-8.94857143,0l1.44,-11.2114286l9.25714286,-0.514285714l2.05714286,-13.7828571l18.4114286,0l-1.95428571,13.7828571l13.0628571,0l-1.64571429,11.7257143l-13.165714275,-2.6e-8z" />
      </g>
    </g>
  </g>
</svg>
