<svg width="38" height="38" viewBox="0 0 38 38" xmlns="http://www.w3.org/2000/svg"><title>Yahoo</title><path d="M12.098 9.156c.504.014.654.007 1.019-.057.235-.042.453-.085.482-.095.04-.01.104.067.214.258.54.953 1.105 1.913 1.744 2.976.644 1.074 1.187 1.953 2.977 4.827.243.392.45.713.461.713.022 0 1.92-3.008 2.641-4.177a135.772 135.772 0 0 0 2.076-3.517c.336-.593.619-1.08.622-1.084.004-.003.118.029.254.07.221.064.34.075 1.054.075.711 0 .836-.007 1.083-.074.15-.039.275-.067.275-.057 0 .007-.11.17-.247.357-.464.646-1.247 1.903-1.987 3.203-.232.406-.864 1.48-1.404 2.383-.54.904-1.494 2.514-2.123 3.58l-1.136 1.942v.23c0 .13.032 2.04.075 4.248.046 2.21.071 4.025.064 4.032-.01.01-.078 0-.157-.018-.079-.02-.497-.046-.93-.056-.607-.014-.86-.004-1.125.039-.186.028-.34.05-.34.046-.003-.004.036-1.918.083-4.255l.086-4.244-1.887-3.256c-2.352-4.068-3.145-5.378-4.589-7.602-.2-.31-.375-.583-.382-.607-.01-.025.071-.018.247.031.189.05.418.075.85.089z" fill="#410093" fill-rule="nonzero"/></svg>
